<?xml version="1.0" encoding="utf-8"?>
<!-- Generator: Adobe Illustrator 24.2.3, SVG Export Plug-In . SVG Version: 6.00 Build 0)  -->
<svg version="1.1" id="Capa_1" xmlns="http://www.w3.org/2000/svg" xmlns:xlink="http://www.w3.org/1999/xlink" x="0px" y="0px"
	 viewBox="0 0 384.7 49.8" style="enable-background:new 0 0 384.7 49.8;" xml:space="preserve">
<style type="text/css">
	.st0{fill:#FF6B00;}
	.st1{fill:#1B1515;}
</style>
<path class="st0" d="M105.5,48.1c0,0,4.6,1.7,10.2,1.7c5.6,0,9.8-1.6,9.8-1.6c0.9-0.2,0.7-1,0.7-1l0-40.2c0-6.8-5.8-7-5.8-7H96.7
	c-5.1,0-7.9,3.3-7.9,3.3l-7.7,8.1c-2.2,2.5-2.7-0.7-2.7-0.7V5.7c0-5.1-5.6-5.6-5.6-5.6h-22c-4.4-0.1-7.1,2.2-7.1,2.2l-43.3,45
	c-1.2,1,0.4,1.2,0.4,1.2h3.8c0.7,0,2.1-0.5,2.1-0.5l21.8-22.7c0.8-1.4,1.8-0.7,1.8-0.7l18.9,15.1c11.1,9.2,29.6,6.2,29.6,6.2v-5.5
	c-18.6,1.5-31.3-10-31.3-10L34.1,19L48.8,4.7c1-1.4,2.9-1.2,2.9-1.2h1.2C57,3.4,57,7.5,57,7.5v22c10,7.4,21.8,5.2,21.8,5.2V21.3
	l16-16.7C96.5,2.3,98.3,3,98.3,3h1.5c4.4,0,4.5,4.5,4.5,4.5l-0.1,39.4C104.2,46.9,104,47.8,105.5,48.1"/>
<polygon class="st1" points="266.8,1.9 274.3,1.9 277,17.9 277,17.9 279.6,1.9 287,1.9 287,26.2 282.3,26.2 282.3,7.3 282.2,7.3 
	278.9,26.2 274.9,26.2 271.4,7.3 271.4,7.3 271.4,26.2 266.8,26.2 "/>
<path class="st1" d="M297.5,26.7c-6.7,0-7.6-4.9-7.6-12.6c0-7.7,0.9-12.6,7.6-12.6c7.2,0,7.6,5.9,7.6,12.6
	C305.1,20.8,304.8,26.7,297.5,26.7 M297.5,22.8c2.1,0,2.4-2.1,2.4-8.8s-0.3-8.8-2.4-8.8c-2,0-2.3,2.1-2.3,8.8S295.5,22.8,297.5,22.8
	"/>
<polygon class="st1" points="307.8,1.9 313.7,1.9 317.9,17.7 318,17.7 318,1.9 322.7,1.9 322.7,26.2 316.9,26.2 312.5,9.5 
	312.4,9.5 312.4,26.2 307.8,26.2 "/>
<path class="st1" d="M325.9,1.9h7.6c5.1,0,7.2,2.9,7.2,11.3c0,8.8-1,12.9-7.7,12.9h-7.1V1.9z M331,22h1.4c2.4,0,3.2-1.1,3.2-8.3
	c0-5.9-0.4-7.5-3.1-7.5H331V22z"/>
<rect x="343.5" y="1.9" class="st1" width="5.1" height="24.3"/>
<polygon class="st1" points="351.8,1.9 357.7,1.9 361.9,17.7 362,17.7 362,1.9 366.7,1.9 366.7,26.2 360.9,26.2 356.5,9.5 
	356.4,9.5 356.4,26.2 351.8,26.2 "/>
<path class="st1" d="M377,26.7c-6.7,0-7.6-4.9-7.6-12.6c0-7.7,0.9-12.6,7.6-12.6c7.3,0,7.6,5.9,7.6,12.6
	C384.7,20.8,384.3,26.7,377,26.7 M377,22.8c2.1,0,2.4-2.1,2.4-8.8s-0.3-8.8-2.4-8.8c-2,0-2.3,2.1-2.3,8.8S375,22.8,377,22.8"/>
<path class="st1" d="M139.2,2.3h2.4l6.4,24.3H146l-1.8-7.1h-7.6l-1.8,7.1h-2.1L139.2,2.3z M143.8,17.6L140.5,4h-0.1l-3.3,13.7H143.8
	z"/>
<polygon class="st1" points="149.8,2.3 151.7,2.3 151.7,24.7 160.7,24.7 160.7,26.5 149.8,26.5 "/>
<polygon class="st1" points="162.7,2.3 173.5,2.3 173.5,4.1 164.7,4.1 164.7,12.9 172.9,12.9 172.9,14.8 164.7,14.8 164.7,26.5 
	162.7,26.5 "/>
<path class="st1" d="M175.7,2.3h6.5c3.6,0,5.6,2.3,5.6,6.1c0,2.9-1,5.5-3.9,6.1v0.1c2.7,0.3,3.6,2,3.7,5.7l0.1,2.6
	c0,1.3,0.2,2.6,0.9,3.6h-2.3c-0.5-0.9-0.5-2.1-0.6-3.4l-0.1-2c-0.1-4.3-0.8-5.6-4.3-5.6h-3.7v11.1h-2V2.3z M177.7,13.6h3.3
	c3.1,0,4.9-1.6,4.9-4.8c0-3-1.1-4.8-4.7-4.8h-3.6V13.6z"/>
<polygon class="st1" points="190.2,2.3 201.6,2.3 201.6,4.1 192.3,4.1 192.3,12.9 201,12.9 201,14.8 192.3,14.8 192.3,24.7 
	201.9,24.7 201.9,26.5 190.2,26.5 "/>
<path class="st1" d="M204.5,2.3h5.2c6.3,0,7.9,4.2,7.9,12.1c0,7.9-1.6,12.1-7.9,12.1h-5.2V2.3z M206.4,24.7h3.2
	c4.3,0,6.1-2.4,6.1-10.3c0-8-1.8-10.3-6.1-10.3h-3.2V24.7z"/>
<path class="st1" d="M227.6,1.9c4.4,0,6.9,3.8,6.9,12.5c0,8.7-2.5,12.5-6.9,12.5s-6.9-3.8-6.9-12.5C220.6,5.7,223.1,1.9,227.6,1.9
	 M227.6,25.1c3.1,0,5-2.9,5-10.7c0-7.8-1.9-10.7-5-10.7c-3.1,0-5,2.9-5,10.7C222.6,22.2,224.5,25.1,227.6,25.1"/>
<path class="st1" d="M251.6,8.5c0-3-1.2-4.8-3.9-4.8c-2.7,0-4.1,1.9-4.1,4.3c0,7.2,10.5,3.3,10.5,11.8c0,4.7-2.6,7.1-6.6,7.1
	c-4.1,0-6.3-2.4-6.3-7.2V19h2v0.9c0,3.1,1.5,5.2,4.3,5.2c2.7,0,4.7-1.5,4.7-4.9c0-7.2-10.5-3.1-10.5-11.9c0-3.8,2.2-6.4,6-6.4
	c4.1,0,5.9,2.3,5.9,6.6H251.6z"/>
<rect x="257.6" y="23.5" class="st1" width="2.1" height="3"/>
<polygon class="st1" points="143.7,33.7 146.3,33.7 146.3,38.6 149.3,38.6 149.3,33.7 151.9,33.7 151.9,46.6 149.3,46.6 149.3,40.8 
	146.3,40.8 146.3,46.6 143.7,46.6 "/>
<path class="st1" d="M159.3,33.7h3.2l3.4,12.9h-2.7l-0.6-2.7h-3.4l-0.6,2.7h-2.7L159.3,33.7z M159.6,41.7h2.5l-1.2-5.8h0L159.6,41.7
	z"/>
<path class="st1" d="M173.9,38c0-1.9-0.4-2.7-1.5-2.7c-1.3,0-1.6,1.3-1.6,5c0,3.9,0.5,4.6,1.7,4.6c0.9,0,1.6-0.5,1.6-3.3h2.6
	c0,2.8-0.7,5.2-4.1,5.2c-3.9,0-4.4-2.8-4.4-6.7c0-3.9,0.5-6.7,4.4-6.7c3.7,0,4,2.7,4,4.6H173.9z"/>
<rect x="181.3" y="33.7" class="st1" width="2.6" height="12.9"/>
<polygon class="st1" points="196.1,33.7 196.1,35.8 191.5,35.8 191.5,38.8 195.8,38.8 195.8,41 191.5,41 191.5,44.4 196.2,44.4 
	196.2,46.6 188.9,46.6 188.9,33.7 "/>
<polygon class="st1" points="203.1,33.7 206.2,42.5 206.2,42.5 206.2,33.7 208.6,33.7 208.6,46.6 205.6,46.6 202.5,37.6 202.4,37.6 
	202.4,46.6 200.1,46.6 200.1,33.7 "/>
<path class="st1" d="M213.6,33.7h4.2c3.6,0,4.3,2.5,4.3,6.3c0,4.6-1,6.6-4.4,6.6h-4.1V33.7z M216.2,44.6h1.2c1.8,0,2.2-1.1,2.2-4.6
	c0-2.9-0.2-4.4-2.2-4.4h-1.1V44.6z"/>
<path class="st1" d="M227.3,33.7h3.2l3.4,12.9h-2.7l-0.6-2.7h-3.4l-0.6,2.7h-2.7L227.3,33.7z M227.7,41.7h2.5l-1.2-5.8h0L227.7,41.7
	z"/>
<path class="st1" d="M239.8,42.5v0.4c0,1.2,0.3,2,1.7,2c0.8,0,1.6-0.5,1.6-1.6c0-1.2-0.6-1.6-2.3-2.2c-2.3-0.8-3.4-1.8-3.4-3.9
	c0-2.5,1.5-3.8,4-3.8c2.3,0,4,1,4,3.5v0.4h-2.5c0-1.2-0.4-1.9-1.4-1.9c-1.2,0-1.5,0.7-1.5,1.5c0,0.8,0.2,1.3,1.3,1.7l2,0.9
	c1.9,0.8,2.5,1.8,2.5,3.4c0,2.7-1.7,3.9-4.5,3.9c-2.9,0-4.1-1.4-4.1-3.7v-0.5H239.8z"/>
<path class="st1" d="M280.7,38.1c0-1.9-0.4-2.7-1.5-2.7c-1.3,0-1.6,1.3-1.6,5c0,3.9,0.5,4.6,1.7,4.6c0.9,0,1.6-0.5,1.6-3.3h2.6
	c0,2.8-0.7,5.2-4.1,5.2c-3.9,0-4.4-2.8-4.4-6.7c0-3.9,0.5-6.7,4.4-6.7c3.7,0,4,2.7,4,4.6H280.7z"/>
<polygon class="st1" points="296.5,33.7 296.5,35.8 291.9,35.8 291.9,38.9 296.3,38.9 296.3,41 291.9,41 291.9,44.4 296.7,44.4 
	296.7,46.6 289.4,46.6 289.4,33.7 "/>
<path class="st1" d="M302.5,33.7h4.8c2.1,0,3.4,1.1,3.4,3.3c0,1.7-0.7,2.9-2.1,3.2v0c1.8,0.2,2,1.2,2.1,3.9c0,1.4,0.1,2.1,0.6,2.3
	v0.1h-2.8c-0.3-0.4-0.3-0.8-0.3-1.3l-0.1-2.5c0-1-0.5-1.6-1.5-1.6h-1.4v5.4h-2.6V33.7z M305.1,39.3h1.1c1.2,0,1.9-0.5,1.9-1.9
	c0-1.2-0.6-1.8-1.8-1.8h-1.2V39.3z"/>
<polygon class="st1" points="324.2,33.7 324.2,35.8 319.6,35.8 319.6,38.9 323.9,38.9 323.9,41 319.6,41 319.6,44.4 324.4,44.4 
	324.4,46.6 317,46.6 317,33.7 "/>
<path class="st1" d="M332.7,33.7h3.2l3.4,12.9h-2.7l-0.6-2.7h-3.4l-0.6,2.7h-2.7L332.7,33.7z M333,41.7h2.5l-1.2-5.8h0L333,41.7z"/>
<polygon class="st1" points="344.7,46.6 344.7,33.7 347.3,33.7 347.3,44.4 351.9,44.4 351.9,46.6 "/>
<polygon class="st1" points="364.7,33.7 364.7,35.8 360.1,35.8 360.1,38.9 364.5,38.9 364.5,41 360.1,41 360.1,44.4 364.9,44.4 
	364.9,46.6 357.5,46.6 357.5,33.7 "/>
<path class="st1" d="M371.4,42.6v0.4c0,1.2,0.3,2,1.7,2c0.8,0,1.6-0.5,1.6-1.6c0-1.2-0.6-1.6-2.3-2.2c-2.3-0.8-3.4-1.8-3.4-3.9
	c0-2.5,1.5-3.8,4-3.8c2.3,0,4,1,4,3.5v0.4h-2.5c0-1.2-0.4-1.9-1.4-1.9c-1.2,0-1.5,0.7-1.5,1.5c0,0.8,0.2,1.3,1.3,1.7l2,0.9
	c1.9,0.8,2.4,1.8,2.4,3.4c0,2.7-1.7,3.9-4.5,3.9c-2.9,0-4.1-1.4-4.1-3.7v-0.5H371.4z"/>
<path class="st1" d="M262.8,40.3c0,1-0.8,1.8-1.8,1.8c-1,0-1.8-0.8-1.8-1.8c0-1,0.8-1.8,1.8-1.8C262,38.5,262.8,39.3,262.8,40.3"/>
</svg>
